<svg xmlns="http://www.w3.org/2000/svg" xmlns:xlink="http://www.w3.org/1999/xlink" width="48" height="48" viewBox="0 0 48 48">
  <defs>
    <clipPath id="clip-path">
      <rect id="Rectangle_8" data-name="Rectangle 8" width="48" height="48" transform="translate(227 265)" fill="#003a99"/>
    </clipPath>
  </defs>
  <g id="Mask_Group_14" data-name="Mask Group 14" transform="translate(-227 -265)" clip-path="url(#clip-path)">
    <g id="Layer_2" data-name="Layer 2" transform="translate(227 265)">
      <g id="arrow-left">
        <rect id="Rectangle_45" data-name="Rectangle 45" width="48" height="48" fill="#003a99" opacity="0"/>
        <path id="Path_127" data-name="Path 127" d="M27.08,36a4.12,4.12,0,0,1-2.6-.92l-10.2-8.42a3.4,3.4,0,0,1,0-5.32l10.2-8.42a4.2,4.2,0,0,1,4.42-.52A3.52,3.52,0,0,1,31,15.58V32.42a3.52,3.52,0,0,1-2.1,3.18,4.46,4.46,0,0,1-1.82.4ZM17.36,24,27,32V16.18Z" fill="#003a99"/>
      </g>
    </g>
  </g>
</svg>
