<svg xmlns="http://www.w3.org/2000/svg" xmlns:xlink="http://www.w3.org/1999/xlink" width="48" height="48" viewBox="0 0 48 48">
  <defs>
    <clipPath id="clip-path">
      <rect id="Rectangle_8" data-name="Rectangle 8" width="48" height="48" transform="translate(227 265)" fill="#003a99"/>
    </clipPath>
  </defs>
  <g id="Mask_Group_16" data-name="Mask Group 16" transform="translate(-227 -265)" clip-path="url(#clip-path)">
    <g id="Layer_2" data-name="Layer 2" transform="translate(227 265)">
      <g id="clock">
        <rect id="Rectangle_50" data-name="Rectangle 50" width="48" height="48" transform="translate(48 48) rotate(180)" fill="#003a99" opacity="0"/>
        <path id="Path_129" data-name="Path 129" d="M24,4A20,20,0,1,0,44,24,20,20,0,0,0,24,4Zm0,36A16,16,0,1,1,40,24,16,16,0,0,1,24,40Z" fill="#003a99"/>
        <path id="Path_130" data-name="Path 130" d="M32,22H26V16a2,2,0,0,0-4,0v8a2,2,0,0,0,2,2h8a2,2,0,0,0,0-4Z" fill="#003a99"/>
      </g>
    </g>
  </g>
</svg>
