<svg xmlns="http://www.w3.org/2000/svg" xmlns:xlink="http://www.w3.org/1999/xlink" width="48" height="48" viewBox="0 0 48 48">
  <defs>
    <clipPath id="clip-path">
      <rect id="Rectangle_8" data-name="Rectangle 8" width="48" height="48" transform="translate(485 265)" fill="#003a99"/>
    </clipPath>
  </defs>
  <g id="Mask_Group_26" data-name="Mask Group 26" transform="translate(-485 -265)" clip-path="url(#clip-path)">
    <path id="_001-facebook" data-name="001-facebook" d="M48,24A24,24,0,1,0,24,48c.141,0,.281,0,.422-.009V29.316H19.266V23.306h5.156V18.881c0-5.128,3.131-7.922,7.706-7.922a41.885,41.885,0,0,1,4.622.234v5.363H33.6c-2.484,0-2.972,1.181-2.972,2.916V23.3h5.953L35.8,29.306H30.628V47.072A24.007,24.007,0,0,0,48,24Z" transform="translate(485 265)" fill="#003a99"/>
  </g>
</svg>
