<svg xmlns="http://www.w3.org/2000/svg" xmlns:xlink="http://www.w3.org/1999/xlink" width="48" height="48" viewBox="0 0 48 48">
  <defs>
    <clipPath id="clip-path">
      <rect id="Rectangle_8" data-name="Rectangle 8" width="48" height="48" transform="translate(227 265)" fill="#003a99"/>
    </clipPath>
  </defs>
  <g id="Mask_Group_28" data-name="Mask Group 28" transform="translate(-227 -265)" clip-path="url(#clip-path)">
    <g id="_011-instagram" data-name="011-instagram" transform="translate(227 265)">
      <path id="Path_143" data-name="Path 143" d="M28.594,24A4.594,4.594,0,1,1,24,19.406,4.594,4.594,0,0,1,28.594,24Zm0,0" fill="#003a99"/>
      <path id="Path_144" data-name="Path 144" d="M34.743,15.872a4.564,4.564,0,0,0-2.615-2.615,7.625,7.625,0,0,0-2.559-.474C28.116,12.716,27.68,12.7,24,12.7s-4.116.014-5.569.08a7.63,7.63,0,0,0-2.559.475,4.566,4.566,0,0,0-2.616,2.615,7.628,7.628,0,0,0-.474,2.559C12.716,19.885,12.7,20.32,12.7,24s.014,4.115.081,5.569a7.625,7.625,0,0,0,.474,2.559,4.564,4.564,0,0,0,2.615,2.615,7.615,7.615,0,0,0,2.559.475c1.453.066,1.889.08,5.569.08s4.116-.014,5.569-.08a7.616,7.616,0,0,0,2.559-.475,4.564,4.564,0,0,0,2.615-2.615,7.632,7.632,0,0,0,.475-2.559c.066-1.453.08-1.889.08-5.569s-.014-4.116-.08-5.569a7.616,7.616,0,0,0-.475-2.559ZM24,31.077A7.077,7.077,0,1,1,31.077,24,7.077,7.077,0,0,1,24,31.077ZM31.356,18.3a1.654,1.654,0,1,1,1.654-1.654A1.654,1.654,0,0,1,31.356,18.3Zm0,0" fill="#003a99"/>
      <path id="Path_145" data-name="Path 145" d="M24,0A24,24,0,1,0,48,24,24,24,0,0,0,24,0ZM37.7,29.682a10.111,10.111,0,0,1-.641,3.345,7.047,7.047,0,0,1-4.031,4.031,10.118,10.118,0,0,1-3.345.641c-1.47.067-1.939.083-5.682.083s-4.212-.016-5.682-.083a10.118,10.118,0,0,1-3.345-.641,7.047,7.047,0,0,1-4.031-4.031,10.109,10.109,0,0,1-.641-3.345c-.068-1.47-.083-1.939-.083-5.682s.016-4.212.083-5.682a10.112,10.112,0,0,1,.64-3.345,7.051,7.051,0,0,1,4.031-4.031,10.12,10.12,0,0,1,3.345-.641c1.47-.067,1.939-.083,5.682-.083s4.212.016,5.682.083a10.122,10.122,0,0,1,3.345.64,7.049,7.049,0,0,1,4.031,4.031,10.11,10.11,0,0,1,.641,3.345c.067,1.47.083,1.939.083,5.682S37.765,28.212,37.7,29.682Zm0,0" fill="#003a99"/>
    </g>
  </g>
</svg>
