<svg xmlns="http://www.w3.org/2000/svg" width="48" height="48" viewBox="0 0 48 48">
  <g id="Group_307" data-name="Group 307" transform="translate(-614 -265)">
    <rect id="Rectangle_8" data-name="Rectangle 8" width="48" height="48" transform="translate(614 265)" fill="#003a99" opacity="0"/>
    <path id="Path_142" data-name="Path 142" d="M40.167,17.979a5.933,5.933,0,0,0-4.548-2.136H26.6l1.107-2.828A8.167,8.167,0,0,0,20.015,2a1.978,1.978,0,0,0-1.8,1.167L12.58,15.843H7.933A5.933,5.933,0,0,0,2,21.776V35.618a5.933,5.933,0,0,0,5.933,5.933H33.107a5.933,5.933,0,0,0,5.834-4.865l2.511-13.843A5.933,5.933,0,0,0,40.167,17.979ZM11.888,37.6H7.933a1.978,1.978,0,0,1-1.978-1.978V21.776A1.978,1.978,0,0,1,7.933,19.8h3.955ZM37.6,22.131,35.084,35.974A1.978,1.978,0,0,1,33.107,37.6H15.843V18.236l5.379-12.1a4.173,4.173,0,0,1,2.729,5.5L22.9,14.459A3.955,3.955,0,0,0,26.6,19.8h9.018A2.018,2.018,0,0,1,37.6,22.131Z" transform="translate(616 267)" fill="#003a99"/>
  </g>
</svg>
