<svg xmlns="http://www.w3.org/2000/svg" xmlns:xlink="http://www.w3.org/1999/xlink" width="48" height="48" viewBox="0 0 48 48">
  <defs>
    <clipPath id="clip-path">
      <rect id="Rectangle_8" data-name="Rectangle 8" width="48" height="48" transform="translate(227 265)" fill="#003a99"/>
    </clipPath>
  </defs>
  <g id="Mask_Group_3" data-name="Mask Group 3" transform="translate(-227 -265)" clip-path="url(#clip-path)">
    <g id="Layer_2" data-name="Layer 2" transform="translate(227 265)">
      <g id="person">
        <rect id="Rectangle_20" data-name="Rectangle 20" width="48" height="48" fill="#003a99" opacity="0"/>
        <path id="Path_11" data-name="Path 11" d="M24,22a8,8,0,1,0-8-8A8,8,0,0,0,24,22Zm0-12a4,4,0,1,1-4,4A4,4,0,0,1,24,10Z" fill="#003a99"/>
        <path id="Path_12" data-name="Path 12" d="M24,26A14,14,0,0,0,10,40a2,2,0,0,0,4,0,10,10,0,0,1,20,0,2,2,0,0,0,4,0A14,14,0,0,0,24,26Z" fill="#003a99"/>
      </g>
    </g>
  </g>
</svg>
