<svg xmlns="http://www.w3.org/2000/svg" xmlns:xlink="http://www.w3.org/1999/xlink" width="48" height="48" viewBox="0 0 48 48">
  <defs>
    <clipPath id="clip-path">
      <rect id="Rectangle_38" data-name="Rectangle 38" width="48" height="48" transform="translate(29 29)" fill="#fefefe" stroke="#707070" stroke-width="1"/>
    </clipPath>
  </defs>
  <g id="Mask_Group_9" data-name="Mask Group 9" transform="translate(-29 -29)" clip-path="url(#clip-path)">
    <path id="android" d="M8.478,17.356a2.963,2.963,0,0,0-2.962,2.963l0,12.405a2.962,2.962,0,1,0,5.925,0V20.317a2.964,2.964,0,0,0-2.965-2.961M32.368,6.216,34.436,2.44a.411.411,0,1,0-.72-.4L31.628,5.86a14.435,14.435,0,0,0-11.6-.006L17.94,2.048a.41.41,0,1,0-.719.393l2.068,3.773a12.1,12.1,0,0,0-6.808,10.671l26.686,0a12.1,12.1,0,0,0-6.8-10.666M19.753,12.051a1.119,1.119,0,1,1,1.121-1.118,1.119,1.119,0,0,1-1.121,1.118m12.151,0a1.12,1.12,0,1,1,1.117-1.118A1.118,1.118,0,0,1,31.9,12.049M12.59,17.916l0,19.226A3.157,3.157,0,0,0,15.756,40.3h2.152l0,6.564a2.962,2.962,0,1,0,5.924,0l0-6.563h4l0,6.564a2.963,2.963,0,1,0,5.925,0l0-6.562,2.16,0a3.162,3.162,0,0,0,3.163-3.162l0-19.226-26.486,0Zm33.553,2.4a2.962,2.962,0,1,0-5.924,0l0,12.406a2.962,2.962,0,1,0,5.924,0l0-12.406Z" transform="translate(27.169 27.169)" fill="#fefefe"/>
  </g>
</svg>
