<svg xmlns="http://www.w3.org/2000/svg" xmlns:xlink="http://www.w3.org/1999/xlink" width="32" height="32" viewBox="0 0 32 32">
  <defs>
    <clipPath id="clip-path">
      <rect id="Rectangle_18" data-name="Rectangle 18" width="32" height="32" transform="translate(227 265)" fill="#003a99"/>
    </clipPath>
  </defs>
  <g id="Mask_Group_2" data-name="Mask Group 2" transform="translate(-227 -265)" clip-path="url(#clip-path)">
    <g id="Layer_2" data-name="Layer 2" transform="translate(227 265)">
      <g id="shopping-bag">
        <rect id="Rectangle_17" data-name="Rectangle 17" width="32" height="32" fill="#003a99" opacity="0"/>
        <path id="Path_9" data-name="Path 9" d="M28.242,10.82,24.565,7.143A3.9,3.9,0,0,0,21.811,6H13.574A3.9,3.9,0,0,0,10.82,7.143L7.143,10.82A3.9,3.9,0,0,0,6,13.574V25.487a3.9,3.9,0,0,0,3.9,3.9h15.59a3.9,3.9,0,0,0,3.9-3.9V13.574a3.9,3.9,0,0,0-1.143-2.754ZM12.652,8.975a1.364,1.364,0,0,1,.922-.377h8.237a1.364,1.364,0,0,1,.922.377L24.955,11.2H10.43ZM25.487,26.787H9.9a1.3,1.3,0,0,1-1.3-1.3V13.795H26.787V25.487A1.3,1.3,0,0,1,25.487,26.787Z" transform="translate(-2.103 -2.103)" fill="#003a99"/>
        <path id="Path_10" data-name="Path 10" d="M25.094,22a1.3,1.3,0,0,0-1.3,1.3,2.6,2.6,0,0,1-5.2,0,1.3,1.3,0,1,0-2.6,0,5.2,5.2,0,0,0,10.393,0A1.3,1.3,0,0,0,25.094,22Z" transform="translate(-5.607 -7.709)" fill="#003a99"/>
      </g>
    </g>
  </g>
</svg>
