<svg xmlns="http://www.w3.org/2000/svg" xmlns:xlink="http://www.w3.org/1999/xlink" width="48" height="48" viewBox="0 0 48 48">
  <defs>
    <clipPath id="clip-path">
      <rect id="Rectangle_38" data-name="Rectangle 38" width="48" height="48" transform="translate(29 29)" fill="#fefefe" stroke="#707070" stroke-width="1"/>
    </clipPath>
  </defs>
  <g id="Mask_Group_10" data-name="Mask Group 10" transform="translate(-29 -29)" clip-path="url(#clip-path)">
    <g id="c" transform="translate(28.377 28.408)">
      <path id="Path_123" data-name="Path 123" d="M43.969,11.189,26.549,1.107a3.863,3.863,0,0,0-3.853,0L5.277,11.189a3.843,3.843,0,0,0-1.916,3.33V34.665a3.843,3.843,0,0,0,1.916,3.33L22.7,48.077a3.863,3.863,0,0,0,3.853,0L43.969,37.995a3.842,3.842,0,0,0,1.916-3.33V14.52a3.842,3.842,0,0,0-1.916-3.33ZM24.285,38.066c-8.761,0-13.259-5.574-13.259-13.321s5.123-13.71,13.628-13.71c9.488,0,12.132,6.25,12.3,9.222H29.326c-.471-2.111-1.773-3.576-4.816-3.576-3.566,0-5.584,2.869-5.584,7.88,0,5.5,2.142,8.013,5.554,8.013a4.734,4.734,0,0,0,4.806-3.4h7.654C35.966,33.425,32.666,38.066,24.285,38.066Zm17.85-14.345H41.11l-.307,1.26h.83v1.137H40.546l-.441,1.834H39.081l.451-1.834H38.394l-.482,1.793H36.888l.451-1.834h-.8V24.94h1.086l.287-1.26h-.871V22.543h1.148l.42-1.691h1.025l-.379,1.691h1.137l.41-1.691h1.025l-.42,1.691h.738Z" fill="#fefefe"/>
      <path id="Path_124" data-name="Path 124" d="M38.671,24.94H39.8l.307-1.26H38.978Z" fill="#fefefe"/>
    </g>
  </g>
</svg>
