<svg xmlns="http://www.w3.org/2000/svg" xmlns:xlink="http://www.w3.org/1999/xlink" width="48" height="48" viewBox="0 0 48 48">
  <defs>
    <clipPath id="clip-path">
      <rect id="Rectangle_8" data-name="Rectangle 8" width="48" height="48" transform="translate(1001 390)" fill="#003a99"/>
    </clipPath>
  </defs>
  <g id="Mask_Group_42" data-name="Mask Group 42" transform="translate(-1001 -390)" clip-path="url(#clip-path)">
    <g id="Layer_2" data-name="Layer 2" transform="translate(1001 390)">
      <g id="compass">
        <rect id="Rectangle_107" data-name="Rectangle 107" width="48" height="48" fill="#003a99" opacity="0"/>
        <path id="Path_465" data-name="Path 465" d="M21.6,26.42l3.38-1.36,1.42-3.48-3.38,1.36Z" fill="#003a99"/>
        <path id="Path_466" data-name="Path 466" d="M24,4A20,20,0,1,0,44,24,20,20,0,0,0,24,4Zm7.86,14.84-3.5,8.52a2,2,0,0,1-1.1,1.1l-8.42,3.4a2.118,2.118,0,0,1-2.26-.48h-.1a2,2,0,0,1-.36-2l3.5-8.52a2,2,0,0,1,1.1-1.1l8.42-3.4a2.075,2.075,0,0,1,2.72,2.48Z" fill="#003a99"/>
      </g>
    </g>
  </g>
</svg>
