<svg xmlns="http://www.w3.org/2000/svg" xmlns:xlink="http://www.w3.org/1999/xlink" width="48" height="48" viewBox="0 0 48 48">
  <defs>
    <clipPath id="clip-path">
      <rect id="Rectangle_38" data-name="Rectangle 38" width="48" height="48" transform="translate(29 29)" fill="#fefefe" stroke="#707070" stroke-width="1"/>
    </clipPath>
  </defs>
  <g id="Mask_Group_8" data-name="Mask Group 8" transform="translate(-29 -29)" clip-path="url(#clip-path)">
    <path id="html-5" d="M3.482.771,7.34,43.99l17.31,4.781L42.008,44,45.869.771H3.482ZM37.846,11,37.6,13.769,37.5,15.037H17.192l.485,5.4H37.015l-.13,1.338L35.639,35.7l-.092.875L24.676,39.562h0l-.013.007L13.8,36.708l-.738-8.176h5.327l.377,4.21,5.894,1.573h.017V34.1L30.6,32.61l.618-6.778H12.824l-1.3-14.7-.127-1.5h26.58L37.846,11Z" transform="translate(28.324 28.229)" fill="#fefefe"/>
  </g>
</svg>
