<svg xmlns="http://www.w3.org/2000/svg" xmlns:xlink="http://www.w3.org/1999/xlink" width="24" height="24" viewBox="0 0 24 24">
  <defs>
    <clipPath id="clip-path">
      <rect id="Rectangle_80" data-name="Rectangle 80" width="24" height="24" fill="#fefefe"/>
    </clipPath>
  </defs>
  <g id="Mask_Group_30" data-name="Mask Group 30" clip-path="url(#clip-path)">
    <g id="_011-instagram" data-name="011-instagram" transform="translate(0 0)">
      <path id="Path_146" data-name="Path 146" d="M23.95,21.678a2.272,2.272,0,1,1-2.272-2.272A2.272,2.272,0,0,1,23.95,21.678Zm0,0" transform="translate(-9.81 -9.81)" fill="#fefefe"/>
      <path id="Path_147" data-name="Path 147" d="M23.6,14.27a2.257,2.257,0,0,0-1.293-1.293,3.771,3.771,0,0,0-1.265-.235c-.719-.033-.934-.04-2.754-.04s-2.035.007-2.754.04a3.773,3.773,0,0,0-1.265.235,2.258,2.258,0,0,0-1.294,1.293,3.772,3.772,0,0,0-.235,1.265c-.033.719-.04.934-.04,2.754s.007,2.035.04,2.754a3.771,3.771,0,0,0,.235,1.265A2.257,2.257,0,0,0,14.269,23.6a3.766,3.766,0,0,0,1.265.235c.719.033.934.04,2.754.04s2.036-.007,2.754-.04a3.766,3.766,0,0,0,1.265-.235A2.257,2.257,0,0,0,23.6,22.308a3.774,3.774,0,0,0,.235-1.265c.033-.719.04-.934.04-2.754s-.007-2.035-.04-2.754A3.766,3.766,0,0,0,23.6,14.27Zm-5.313,7.519a3.5,3.5,0,1,1,3.5-3.5A3.5,3.5,0,0,1,18.289,21.789Zm3.638-6.32a.818.818,0,1,1,.818-.818A.818.818,0,0,1,21.927,15.469Zm0,0" transform="translate(-6.421 -6.421)" fill="#fefefe"/>
      <path id="Path_148" data-name="Path 148" d="M11.868,0A11.868,11.868,0,1,0,23.737,11.868,11.87,11.87,0,0,0,11.868,0Zm6.774,14.678a5,5,0,0,1-.317,1.654,3.485,3.485,0,0,1-1.993,1.993,5,5,0,0,1-1.654.317c-.727.033-.959.041-2.81.041s-2.083-.008-2.81-.041A5,5,0,0,1,7.4,18.325a3.485,3.485,0,0,1-1.993-1.993,5,5,0,0,1-.317-1.654c-.034-.727-.041-.959-.041-2.81s.008-2.083.041-2.81A5,5,0,0,1,5.411,7.4,3.487,3.487,0,0,1,7.4,5.411a5,5,0,0,1,1.654-.317c.727-.033.959-.041,2.81-.041s2.083.008,2.81.041a5.006,5.006,0,0,1,1.654.316A3.486,3.486,0,0,1,18.325,7.4a5,5,0,0,1,.317,1.654c.033.727.041.959.041,2.81S18.675,13.951,18.642,14.678Zm0,0" fill="#fefefe"/>
    </g>
  </g>
</svg>
