<svg xmlns="http://www.w3.org/2000/svg" width="24" height="24" viewBox="0 0 24 24">
  <g id="Group_308" data-name="Group 308" transform="translate(-614 -265)">
    <rect id="Rectangle_8" data-name="Rectangle 8" width="24" height="24" transform="translate(614 265)" fill="#10bf68" opacity="0"/>
    <path id="Path_142" data-name="Path 142" d="M21.022,9.963A2.957,2.957,0,0,0,18.755,8.9H14.261l.552-1.409A4.07,4.07,0,0,0,10.979,2a.986.986,0,0,0-.9.581L7.273,8.9H4.957A2.957,2.957,0,0,0,2,11.856v6.9a2.957,2.957,0,0,0,2.957,2.957H17.5a2.957,2.957,0,0,0,2.907-2.425l1.252-6.9A2.957,2.957,0,0,0,21.022,9.963ZM6.928,19.74H4.957a.986.986,0,0,1-.986-.986v-6.9a.986.986,0,0,1,.986-.986H6.928ZM19.74,12.033l-1.252,6.9a.986.986,0,0,1-.986.808H8.9V10.092L11.58,4.06A2.08,2.08,0,0,1,12.94,6.8l-.522,1.409a1.971,1.971,0,0,0,1.843,2.661h4.494a1.006,1.006,0,0,1,.986,1.163Z" transform="translate(613.994 264.994)" fill="#10bf68"/>
  </g>
</svg>
