<svg xmlns="http://www.w3.org/2000/svg" width="37.175" height="40.696" viewBox="0 0 37.175 40.696">
  <path id="Path_126" data-name="Path 126" d="M304.319,204.845c-.079,0-15.871,0-15.949.006a7.122,7.122,0,0,0-6.816,7.1v.013c0,26.339-.026,26.555.05,26.766a7.056,7.056,0,0,0,14.109-.29s0-1.874,0-1.878v-2.716h8.607a14.5,14.5,0,0,0,0-29Zm0,27.314c-4.131,0-12.623-.067-15.584.18-2.277.192-4.421,1.043-5.508,2.731v-9.044c.47-3.6,4.106-3.819,6.6-3.819l14.224-.014a6.516,6.516,0,0,0,5.489-3.45,9.292,9.292,0,0,0-3.217-12.053,12.82,12.82,0,0,1-2,25.469Z" transform="translate(-281.549 -204.845)" fill="#003a99"/>
</svg>
