<svg xmlns="http://www.w3.org/2000/svg" width="32" height="46.716" viewBox="0 0 32 46.716">
  <g id="Group_255" data-name="Group 255" transform="translate(-947.799 -1064.228)">
    <g id="Group_254" data-name="Group 254" transform="translate(948 1063.941)">
      <rect id="Rectangle_43" data-name="Rectangle 43" width="32" height="31" transform="translate(-0.201 0.288)" fill="none"/>
      <path id="Rectangle_44" data-name="Rectangle 44" d="M-3.607-12H1.33A8.4,8.4,0,0,1,9.723-3.607V6.267A8.4,8.4,0,0,1,1.33,14.661H-3.607A8.4,8.4,0,0,1-12,6.267V-3.607A8.4,8.4,0,0,1-3.607-12ZM1.33,11.7A5.437,5.437,0,0,0,6.761,6.267V-3.607A5.437,5.437,0,0,0,1.33-9.038H-3.607A5.437,5.437,0,0,0-9.038-3.607V6.267A5.437,5.437,0,0,0-3.607,11.7Z" transform="translate(16.937 14.509)" fill="#fefefe"/>
      <path id="Line_2" data-name="Line 2" d="M-10.519-4.1A1.481,1.481,0,0,1-12-5.582v-4.937A1.481,1.481,0,0,1-10.519-12a1.481,1.481,0,0,1,1.481,1.481v4.937A1.481,1.481,0,0,1-10.519-4.1Z" transform="translate(26.318 19.94)" fill="#fefefe"/>
    </g>
    <path id="Path_125" data-name="Path 125" d="M2981.346,1166.475a1.666,1.666,0,0,1-1.178-.488l-4.084-4.083a1.666,1.666,0,0,1,2.357-2.356l2.905,2.905,2.729-2.729a1.666,1.666,0,0,1,2.356,2.356l-3.907,3.907A1.666,1.666,0,0,1,2981.346,1166.475Z" transform="translate(-2017.475 -62.38)" fill="#fefefe"/>
    <path id="Path_126" data-name="Path 126" d="M2981.346,1166.475a1.666,1.666,0,0,1-1.178-.488l-4.084-4.083a1.666,1.666,0,0,1,2.357-2.356l2.905,2.905,2.729-2.729a1.666,1.666,0,0,1,2.356,2.356l-3.907,3.907A1.666,1.666,0,0,1,2981.346,1166.475Z" transform="translate(-2017.475 -55.53)" fill="#fefefe"/>
  </g>
</svg>
