<svg xmlns="http://www.w3.org/2000/svg" xmlns:xlink="http://www.w3.org/1999/xlink" width="24" height="24" viewBox="0 0 24 24">
  <defs>
    <clipPath id="clip-path">
      <rect id="Rectangle_102" data-name="Rectangle 102" width="24" height="24" transform="translate(1130.329 390.33)" fill="#003a99"/>
    </clipPath>
  </defs>
  <g id="Mask_Group_41" data-name="Mask Group 41" transform="translate(-1130.329 -390.33)" clip-path="url(#clip-path)">
    <g id="Layer_2" data-name="Layer 2" transform="translate(1130 390)">
      <g id="lock">
        <rect id="Rectangle_101" data-name="Rectangle 101" width="24" height="24" transform="translate(0.33 0.33)" fill="#003a99" opacity="0"/>
        <circle id="Ellipse_349" data-name="Ellipse 349" cx="1" cy="1" r="1" transform="translate(11.33 14.33)" fill="#003a99"/>
        <path id="Path_464" data-name="Path 464" d="M21.179,10.191H20.165V8.275a4.055,4.055,0,0,0-8.11,0v1.916H11.041A3.041,3.041,0,0,0,8,13.232v8.11a3.041,3.041,0,0,0,3.041,3.041H21.179a3.041,3.041,0,0,0,3.041-3.041v-8.11A3.041,3.041,0,0,0,21.179,10.191Zm-7.1-1.916a2.03,2.03,0,1,1,4.055,0v1.916H14.082ZM16.11,20.328a3.041,3.041,0,1,1,3.041-3.041A3.041,3.041,0,0,1,16.11,20.328Z" transform="translate(-3.945 -2.081)" fill="#003a99"/>
      </g>
    </g>
  </g>
</svg>
