<svg xmlns="http://www.w3.org/2000/svg" xmlns:xlink="http://www.w3.org/1999/xlink" width="48" height="48" viewBox="0 0 48 48">
  <defs>
    <clipPath id="clip-path">
      <rect id="Rectangle_38" data-name="Rectangle 38" width="48" height="48" transform="translate(29 29)" fill="#fefefe" stroke="#707070" stroke-width="1"/>
    </clipPath>
  </defs>
  <g id="Mask_Group_11" data-name="Mask Group 11" transform="translate(-29 -29)" clip-path="url(#clip-path)">
    <path id="python-plain" d="M19.35,24.32H30.787a5.8,5.8,0,0,0,5.692-5.891V7.525c0-3.1-2.6-5.435-5.709-5.953A35.565,35.565,0,0,0,24.813,1.1a31.953,31.953,0,0,0-5.415.467c-4.846.855-5.669,2.648-5.669,5.953v4.243H25.1v1.569H9.326a7.152,7.152,0,0,0-7.153,5.81,21.2,21.2,0,0,0,0,11.583c.814,3.39,2.758,5.75,6.086,5.75h3.9V31.361A7.246,7.246,0,0,1,19.35,24.32ZM18.629,8.979A2.182,2.182,0,1,1,20.778,6.8,2.161,2.161,0,0,1,18.629,8.979ZM47.965,19.146c-.823-3.314-2.394-5.81-5.726-5.81h-4.19v5.092A7.27,7.27,0,0,1,30.787,25.5H19.35a5.925,5.925,0,0,0-5.621,6.012v10.9c0,3.1,2.646,4.928,5.673,5.819a19.021,19.021,0,0,0,11.4,0c2.883-.835,5.683-2.515,5.683-5.819V38.048H25.1V36.479H42.238c3.328,0,4.569-2.266,5.726-5.75,1.2-3.587,1.144-6.982,0-11.583ZM31.508,40.958a2.182,2.182,0,1,1-2.149,2.176A2.161,2.161,0,0,1,31.508,40.958Z" transform="translate(27.896 27.896)" fill="#fefefe"/>
  </g>
</svg>
