<svg xmlns="http://www.w3.org/2000/svg" xmlns:xlink="http://www.w3.org/1999/xlink" width="32" height="32" viewBox="0 0 32 32">
  <defs>
    <clipPath id="clip-path">
      <rect id="Rectangle_25" data-name="Rectangle 25" width="32" height="32" transform="translate(227 265)" fill="#003a99"/>
    </clipPath>
  </defs>
  <g id="Mask_Group_6" data-name="Mask Group 6" transform="translate(-227 -265)" clip-path="url(#clip-path)">
    <g id="Layer_2" data-name="Layer 2" transform="translate(227 265)">
      <g id="search">
        <rect id="Rectangle_24" data-name="Rectangle 24" width="32" height="32" fill="#003a99" opacity="0"/>
        <path id="Path_16" data-name="Path 16" d="M29.4,27.525l-4.493-4.479a10.465,10.465,0,0,0,2.233-6.475A10.571,10.571,0,1,0,16.571,27.142a10.465,10.465,0,0,0,6.475-2.233L27.525,29.4A1.327,1.327,0,1,0,29.4,27.525ZM8.643,16.571A7.928,7.928,0,1,1,16.571,24.5a7.928,7.928,0,0,1-7.928-7.928Z" transform="translate(-2.036 -2.036)" fill="#003a99"/>
      </g>
    </g>
  </g>
</svg>
