<svg xmlns="http://www.w3.org/2000/svg" xmlns:xlink="http://www.w3.org/1999/xlink" width="48" height="48" viewBox="0 0 48 48">
  <defs>
    <clipPath id="clip-path">
      <rect id="Rectangle_8" data-name="Rectangle 8" width="48" height="48" transform="translate(1259 390)" fill="#003a99"/>
    </clipPath>
  </defs>
  <g id="Mask_Group_37" data-name="Mask Group 37" transform="translate(-1259 -390)" clip-path="url(#clip-path)">
    <g id="Layer_2" data-name="Layer 2" transform="translate(1259 390)">
      <g id="eye">
        <rect id="Rectangle_95" data-name="Rectangle 95" width="48" height="48" fill="#003a99" opacity="0"/>
        <circle id="Ellipse_346" data-name="Ellipse 346" cx="3" cy="3" r="3" transform="translate(21 21)" fill="#003a99"/>
        <path id="Path_460" data-name="Path 460" d="M43.74,23c-1.28-2.22-8.32-13.36-20.28-13C12.4,10.28,6,20,4.26,23a2,2,0,0,0,0,2c1.26,2.18,8,13,19.78,13h.5c11.06-.28,17.48-10,19.2-13A2,2,0,0,0,43.74,23ZM24,31a7,7,0,1,1,7-7,7,7,0,0,1-7,7Z" fill="#003a99"/>
      </g>
    </g>
  </g>
</svg>
