<svg xmlns="http://www.w3.org/2000/svg" xmlns:xlink="http://www.w3.org/1999/xlink" width="24" height="24" viewBox="0 0 24 24">
  <defs>
    <clipPath id="clip-path">
      <rect id="Rectangle_83" data-name="Rectangle 83" width="24" height="24" transform="translate(-0.078)" fill="#fefefe"/>
    </clipPath>
  </defs>
  <g id="Mask_Group_33" data-name="Mask Group 33" transform="translate(0.078)" clip-path="url(#clip-path)">
    <path id="_013-twitter" data-name="013-twitter" d="M11.868,0A11.868,11.868,0,1,0,23.737,11.868,11.87,11.87,0,0,0,11.868,0Zm5.419,9.254q.008.175.008.352a7.7,7.7,0,0,1-7.751,7.751h0a7.711,7.711,0,0,1-4.176-1.224,5.54,5.54,0,0,0,.65.038A5.466,5.466,0,0,0,9.4,15a2.727,2.727,0,0,1-2.545-1.892,2.715,2.715,0,0,0,1.23-.047A2.725,2.725,0,0,1,5.9,10.4c0-.012,0-.023,0-.035a2.705,2.705,0,0,0,1.234.341,2.726,2.726,0,0,1-.843-3.637,7.734,7.734,0,0,0,5.615,2.846A2.726,2.726,0,0,1,16.55,7.426a5.464,5.464,0,0,0,1.73-.661,2.735,2.735,0,0,1-1.2,1.507,5.433,5.433,0,0,0,1.564-.429,5.536,5.536,0,0,1-1.359,1.411Zm0,0" fill="#fefefe"/>
  </g>
</svg>
