<svg xmlns="http://www.w3.org/2000/svg" width="32" height="32" viewBox="0 0 32 32">
  <g id="person" transform="translate(0 -0.124)">
    <rect id="Rectangle_21" data-name="Rectangle 21" width="32" height="32" transform="translate(0 0.124)" fill="#fefefe" opacity="0"/>
    <path id="Path_13" data-name="Path 13" d="M21.354,16.708A5.354,5.354,0,1,0,16,11.354,5.354,5.354,0,0,0,21.354,16.708Zm0-8.031a2.677,2.677,0,1,1-2.677,2.677A2.677,2.677,0,0,1,21.354,8.677Z" transform="translate(-5.292 -1.985)" fill="#fefefe"/>
    <path id="Path_14" data-name="Path 14" d="M19.369,26A9.369,9.369,0,0,0,10,35.369a1.338,1.338,0,1,0,2.677,0,6.692,6.692,0,0,1,13.385,0,1.338,1.338,0,1,0,2.677,0A9.369,9.369,0,0,0,19.369,26Z" transform="translate(-3.308 -8.6)" fill="#fefefe"/>
  </g>
</svg>
